<svg width="150" height="40" viewBox="0 0 150 40" fill="none" xmlns="http://www.w3.org/2000/svg">
  <path d="M20 0C8.954 0 0 8.954 0 20C0 31.046 8.954 40 20 40C31.046 40 40 31.046 40 20C40 8.954 31.046 0 20 0ZM20 36C11.163 36 4 28.837 4 20C4 11.163 11.163 4 20 4C28.837 4 36 11.163 36 20C36 28.837 28.837 36 20 36Z" fill="#3B82F6"/>
  <path d="M14 14C12.895 14 12 14.895 12 16V28C12 29.105 12.895 30 14 30H26C27.105 30 28 29.105 28 28V16C28 14.895 27.105 14 26 14H14ZM14 16H26V28H14V16Z" fill="#3B82F6"/>
  <path d="M16 10C16 8.895 16.895 8 18 8H29C30.105 8 31 8.895 31 10V22C31 23.105 30.105 24 29 24H27V22H29V10H18V12H16V10Z" fill="#3B82F6"/>
  <path d="M52.12 28.288C50.648 28.288 49.352 27.952 48.232 27.28C47.128 26.608 46.264 25.664 45.64 24.448C45.016 23.216 44.704 21.824 44.704 20.272C44.704 18.72 45.016 17.336 45.64 16.12C46.264 14.888 47.128 13.936 48.232 13.264C49.352 12.592 50.648 12.256 52.12 12.256C53.528 12.256 54.768 12.592 55.84 13.264C56.912 13.92 57.712 14.864 58.24 16.096L55.672 17.36C55.32 16.56 54.84 15.96 54.232 15.56C53.64 15.16 52.936 14.96 52.12 14.96C51.192 14.96 50.384 15.176 49.696 15.608C49.008 16.04 48.472 16.648 48.088 17.432C47.72 18.216 47.536 19.16 47.536 20.272C47.536 21.384 47.72 22.336 48.088 23.12C48.472 23.904 49.008 24.512 49.696 24.944C50.384 25.376 51.192 25.592 52.12 25.592C52.936 25.592 53.64 25.392 54.232 24.992C54.84 24.592 55.32 23.992 55.672 23.192L58.24 24.448C57.712 25.68 56.912 26.632 55.84 27.304C54.768 27.96 53.528 28.288 52.12 28.288ZM65.2669 28.288C63.9149 28.288 62.7229 27.992 61.6909 27.4C60.6589 26.808 59.8429 25.992 59.2429 24.952C58.6589 23.896 58.3669 22.688 58.3669 21.328C58.3669 19.968 58.6669 18.768 59.2669 17.728C59.8829 16.672 60.7149 15.848 61.7629 15.256C62.8109 14.664 63.9949 14.368 65.3149 14.368C66.6349 14.368 67.8109 14.664 68.8429 15.256C69.8909 15.848 70.7149 16.672 71.3149 17.728C71.9309 18.768 72.2389 19.968 72.2389 21.328C72.2389 22.688 71.9229 23.896 71.2909 24.952C70.6749 25.992 69.8349 26.808 68.7709 27.4C67.7229 27.992 66.5549 28.288 65.2669 28.288ZM65.2669 25.856C65.9469 25.856 66.5629 25.704 67.1149 25.4C67.6829 25.08 68.1389 24.624 68.4829 24.032C68.8269 23.44 68.9989 22.736 68.9989 21.92C68.9989 20.752 68.6429 19.84 67.9309 19.184C67.2349 18.512 66.3549 18.176 65.2909 18.176C64.2269 18.176 63.3469 18.512 62.6509 19.184C61.9709 19.84 61.6309 20.752 61.6309 21.92C61.6309 23.088 61.9629 24 62.6269 24.656C63.3069 25.312 64.1869 25.64 65.2669 25.64V25.856ZM75.3397 21.328C75.3397 19.952 75.6397 18.752 76.2397 17.728C76.8397 16.688 77.6637 15.864 78.7117 15.256C79.7597 14.648 80.9597 14.344 82.3117 14.344C84.0237 14.344 85.4837 14.76 86.6917 15.592C87.9157 16.408 88.7157 17.56 89.0917 19.048H85.7317C85.5077 18.44 85.1477 17.976 84.6517 17.656C84.1717 17.32 83.5957 17.152 82.9157 17.152C81.8837 17.152 81.0597 17.496 80.4437 18.184C79.8277 18.856 79.5197 19.848 79.5197 21.16C79.5197 22.456 79.8277 23.448 80.4437 24.136C81.0597 24.808 81.8837 25.144 82.9157 25.144C84.1877 25.144 85.0677 24.536 85.5557 23.32H89.0917C88.7157 24.76 87.9157 25.912 86.6917 26.776C85.4677 27.624 84.0077 28.048 82.3117 28.048C80.9597 28.048 79.7597 27.744 78.7117 27.136C77.6637 26.512 76.8397 25.688 76.2397 24.664C75.6397 23.624 75.3397 22.544 75.3397 21.328ZM96.3346 28.288C95.2066 28.288 94.1986 28.104 93.3106 27.736C92.4226 27.368 91.7106 26.864 91.1746 26.224C90.6546 25.568 90.3586 24.824 90.2866 23.992H93.8226C93.8786 24.44 94.1266 24.816 94.5666 25.12C95.0226 25.408 95.5826 25.552 96.2466 25.552C96.8466 25.552 97.3026 25.448 97.6146 25.24C97.9426 25.016 98.1066 24.744 98.1066 24.424C98.1066 24.056 97.9026 23.792 97.4946 23.632C97.0866 23.456 96.4306 23.264 95.5266 23.056C94.6066 22.864 93.8306 22.664 93.1986 22.456C92.5666 22.248 92.0226 21.912 91.5666 21.448C91.1266 20.968 90.9066 20.32 90.9066 19.504C90.9066 18.816 91.1026 18.192 91.4946 17.632C91.9026 17.056 92.4866 16.608 93.2466 16.288C94.0226 15.968 94.9266 15.808 95.9586 15.808C97.5186 15.808 98.7346 16.184 99.6066 16.936C100.479 17.672 100.959 18.68 101.047 19.96H97.7506C97.7106 19.512 97.4866 19.16 97.0786 18.904C96.6866 18.632 96.1746 18.496 95.5426 18.496C94.9746 18.496 94.5426 18.592 94.2466 18.784C93.9666 18.976 93.8226 19.232 93.8226 19.552C93.8226 19.936 94.0226 20.224 94.4226 20.416C94.8386 20.592 95.4866 20.776 96.3666 20.968C97.3026 21.192 98.0706 21.408 98.6706 21.616C99.2706 21.808 99.7986 22.152 100.255 22.648C100.711 23.128 100.951 23.784 100.975 24.616C100.975 25.32 100.767 25.952 100.351 26.512C99.9506 27.072 99.3586 27.504 98.5826 27.808C97.8226 28.128 97.1426 28.288 96.3346 28.288ZM108.236 28.288C107.068 28.288 106.036 28.064 105.14 27.616C104.252 27.152 103.556 26.52 103.052 25.72C102.548 24.92 102.296 24.024 102.296 23.032C102.296 22.104 102.524 21.28 102.98 20.56C103.436 19.84 104.044 19.28 104.804 18.88C105.564 18.48 106.396 18.28 107.3 18.28C108.148 18.28 108.9 18.456 109.556 18.808C110.22 19.16 110.74 19.656 111.116 20.296C111.492 20.936 111.684 21.672 111.684 22.504C111.684 22.696 111.668 22.904 111.636 23.128C111.62 23.352 111.588 23.56 111.54 23.752H105.38C105.444 24.312 105.668 24.76 106.052 25.096C106.452 25.432 106.932 25.6 107.492 25.6C108.284 25.6 108.82 25.28 109.1 24.64H111.42C111.236 25.44 110.788 26.112 110.076 26.656C109.364 27.2 108.46 27.472 107.364 27.472L108.236 28.288ZM105.332 22.096H108.668C108.636 21.6 108.444 21.2 108.092 20.896C107.74 20.576 107.308 20.416 106.796 20.416C106.252 20.416 105.796 20.584 105.428 20.92C105.06 21.24 105.364 21.632 105.332 22.096ZM117.875 28.288C116.739 28.288 115.707 28.064 114.779 27.616C113.851 27.168 113.115 26.552 112.571 25.768C112.027 24.968 111.755 24.048 111.755 23.008C111.755 21.968 112.027 21.056 112.571 20.272C113.115 19.472 113.851 18.848 114.779 18.4C115.707 17.952 116.739 17.728 117.875 17.728C119.419 17.728 120.747 18.144 121.859 18.976C122.987 19.808 123.683 20.952 123.947 22.408H120.771C120.587 21.416 119.891 20.92 118.683 20.92C117.971 20.92 117.387 21.152 116.931 21.616C116.475 22.08 116.247 22.736 116.247 23.584C116.247 24.432 116.475 25.096 116.931 25.576C117.387 26.04 117.971 26.272 118.683 26.272C119.891 26.272 120.587 25.776 120.771 24.784H123.947C123.683 26.176 122.987 27.296 121.859 28.144C120.747 28.976 119.419 29.392 117.875 29.392V28.288ZM130.372 28.288C129.204 28.288 128.172 28.064 127.276 27.616C126.388 27.152 125.692 26.52 125.188 25.72C124.684 24.92 124.432 24.024 124.432 23.032C124.432 22.104 124.66 21.28 125.116 20.56C125.572 19.84 126.18 19.28 126.94 18.88C127.7 18.48 128.532 18.28 129.436 18.28C130.284 18.28 131.036 18.456 131.692 18.808C132.356 19.16 132.876 19.656 133.252 20.296C133.628 20.936 133.82 21.672 133.82 22.504C133.82 22.696 133.804 22.904 133.772 23.128C133.756 23.352 133.724 23.56 133.676 23.752H127.516C127.58 24.312 127.804 24.76 128.188 25.096C128.588 25.432 129.068 25.6 129.628 25.6C130.42 25.6 130.956 25.28 131.236 24.64H133.556C133.372 25.44 132.924 26.112 132.212 26.656C131.5 27.2 130.596 27.472 129.5 27.472L130.372 28.288ZM127.468 22.096H130.804C130.772 21.6 130.58 21.2 130.228 20.896C129.876 20.576 129.444 20.416 128.932 20.416C128.388 20.416 127.932 20.584 127.564 20.92C127.196 21.24 127.5 21.632 127.468 22.096ZM140.715 28.288C139.579 28.288 138.571 28.048 137.691 27.568C136.811 27.072 136.123 26.392 135.627 25.528C135.147 24.648 134.907 23.656 134.907 22.552C134.907 21.448 135.147 20.464 135.627 19.6C136.123 18.72 136.811 18.04 137.691 17.56C138.571 17.064 139.579 16.816 140.715 16.816C142.275 16.816 143.579 17.248 144.627 18.112C145.691 18.96 146.315 20.112 146.499 21.568H143.323C143.195 20.976 142.923 20.528 142.507 20.224C142.107 19.92 141.595 19.768 140.971 19.768C140.179 19.768 139.555 20.024 139.099 20.536C138.643 21.032 138.419 21.736 138.419 22.648C138.419 23.56 138.643 24.272 139.099 24.784C139.555 25.28 140.179 25.528 140.971 25.528C142.083 25.528 142.795 25.008 143.099 23.968H146.259C146.075 25.296 145.467 26.392 144.435 27.256C143.403 28.104 142.147 28.528 140.667 28.528L140.715 28.288Z" fill="#3B82F6"/>
</svg>
